<?xml version="1.0" encoding="utf-8"?>
<!-- Generator: Adobe Illustrator 25.2.0, SVG Export Plug-In . SVG Version: 6.00 Build 0)  -->
<svg version="1.1" id="Layer_1" xmlns="http://www.w3.org/2000/svg" xmlns:xlink="http://www.w3.org/1999/xlink" x="0px" y="0px"
	 viewBox="0 0 24 24" style="enable-background:new 0 0 24 24;" xml:space="preserve">
<path class="st0" d="M12,2C6.5,2,2,6.5,2,12s4.5,10,10,10s10-4.5,10-10S17.5,2,12,2z M15.5,13l-3,3c-0.1,0.1-0.3,0.2-0.5,0.2
	s-0.4-0.1-0.5-0.2l-3-3c-0.3-0.3-0.3-0.8,0-1.1s0.8-0.3,1.1,0l1.7,1.7V8.5c0-0.4,0.3-0.8,0.8-0.8s0.8,0.3,0.8,0.8v5.2l1.7-1.7
	c0.3-0.3,0.8-0.3,1.1,0S15.8,12.7,15.5,13z"/>
</svg>
