<?xml version="1.0" encoding="utf-8"?>
<!-- Generator: Adobe Illustrator 25.2.0, SVG Export Plug-In . SVG Version: 6.00 Build 0)  -->
<svg version="1.1" id="Layer_1" xmlns="http://www.w3.org/2000/svg" xmlns:xlink="http://www.w3.org/1999/xlink" x="0px" y="0px"
	 viewBox="0 0 24 24" style="enable-background:new 0 0 24 24;" xml:space="preserve">
<g>
	<path class="st0" d="M12,16.8c-0.7,0-1.4-0.3-1.9-0.8L3.5,9.5c-0.3-0.3-0.3-0.8,0-1.1s0.8-0.3,1.1,0l6.5,6.5c0.5,0.5,1.3,0.5,1.7,0
		l2.6-2.6c0.3-0.3,0.8-0.3,1.1,0s0.3,0.8,0,1.1L13.9,16C13.4,16.5,12.7,16.8,12,16.8z"/>
</g>
<g>
	<path class="st0" d="M18.9,10.7c-0.2,0-0.4-0.1-0.5-0.2c-0.3-0.3-0.3-0.8,0-1.1l1-1c0.3-0.3,0.8-0.3,1.1,0s0.3,0.8,0,1.1l-1,1
		C19.3,10.7,19.1,10.7,18.9,10.7z"/>
</g>
</svg>
