<svg xmlns="http://www.w3.org/2000/svg" viewBox="0 0 256 256"><defs><style>.cls-1{fill:#f3b029;fill-rule:evenodd;}</style></defs><g id="Layer_1" data-name="Layer 1"><path class="cls-1" d="M190.52,199.83a92.79,92.79,0,0,1-83.72,1c-28.52-5.75-35.13-23.36-17-80.62,10.57-33.42,5-54.78,31.91-58,3.14-.37,20.16-.78,22.85,0,9.34,2.56,12.65,14.26,13.69,24.8,1.41,10.92-16.49,18.32-27.35,17.76-4.05-1.08-6.54,1.27-6.26,4.43.67,7.89,3.36,17.29,6.12,25.3,4.35,12.68,9.65-6.49,30.72-4,4.33.52,4.89.93,8.32,3.32,7.28,5,10.44.43,17.48-1.08,21.33-4.57,41.86-1.45,59.88,13.48a2.3,2.3,0,0,1,.31,3.22c-4.16,5-33.85-13.17-53.79-1.21a117.12,117.12,0,0,1-12.92,7.16c-25.79,11.35-21.82-31.23-41.76,1.65-4.06,6.68-4.6,17.35-20.26,22.34-19,6.06-28.52-2.81-25.86-7.68,2.43-4.47,11.88-.67,17.54-20.14,3.54-12.13,4.68-21.85,1.73-34.23-1.9-7.84-2.11-1.61-4.54.75a3.34,3.34,0,0,1-4.48.37c-3.22-2.88,3.54-22.46,5-26.53,3.86-10.41,5.81-4.61,11.09-2.2,1.82.82,3.56.36,5,1,1.09.47,2.24,2.17,2.66,2.3.69.22,1.39-7,3.15-8.9,3.84-4.11,2.63,12.47,4.94,12.08,2.66-.44-1.36-16.88-1-18.54.81-3.42,5.12-5,7-1.61,1.36,2.5-.51,12.47,1.89,16.9,1.43,2.52-.24-11.9.18-17.29.47-6.12-2-8.23-7.67-8.75C101.69,63.82,102.8,86,96.71,112.07c-1.78,7.61,1.58,7.38,13.58,8.24a.7.7,0,0,1,.43,1.22c-4.6,4.36-30.58,2.39-10.74,5.18,5.46.78,9.92.27,8.11,1.92-5,4.7-30.29,2.8-10,5.66,5.76.82,9.79.26,8.13,1.92-3.44,3.24-35.95,4.06-2.39,6.45a.71.71,0,0,1,.44,1.22c-4.3,4.07-31.46,3.55-10.06,6.56,5.78.8,9.81.3,8.12,1.91-3.28,3.1-36.44,5.49-1.69,7.82,2.19.16-1.28,4.41-8.86,4.63-14.32.44-4.84,31.76,26.6,22.18,13-4,18.44-12.84,22.36-16.74,8-8,11.86-3.48,16.42-.91,11.63,6.48,22.09-3.39,34.91-2.83,8.72.38,15.08,6.62,18.41,14.31,1.11,2.55,8.8,34.3.83,29.92a58.78,58.78,0,0,1-12.82-10C194.21,196.42,191.21,199.83,190.52,199.83Z"/><path class="cls-1" d="M201.24,107.43c0,4.59,5,3.44,16,3.44a3.44,3.44,0,0,0,3.43-3.44c0-2.79-9.57-2.29-11.67-2.73a.57.57,0,0,1,0-1.11c5.84-1.2,11.67.32,11.67-4.88,0-6.29-12.11-3.1-12.11-5.33s12.11,1.16,12.11-5.63c0-5.88-12.11-3-12.11-5.15s12.11.39,12.11-4.8c0-6-4.95-4-11.67-5.42a.57.57,0,0,1,0-1.11c5.92-1.22,11.67.28,11.67-4.78S214.8,62.81,209,61.61a.57.57,0,0,1,0-1.11c2.2-.46,11.67-.27,11.67-2.73a3.44,3.44,0,0,0-3.43-3.44c-11,0-16-1.13-16,3.44ZM178.31,95c0,21.72-1.13,25.35,3.52,25.35,13.06,0,14.15.51,15.44-1.83,1.52-2.73-11.68-2.2-11.68-3.55,0-2.09,12.12.61,12.12-5,0-5.8-5.21-3.92-11.67-5.26a.57.57,0,0,1,0-1.11c5.93-1.22,11.67.36,11.67-4.94,0-6.14-12.12-3.09-12.12-5.27s12.12.7,12.12-5.09c0-5.6-5.43-3.84-11.67-5.13a.57.57,0,0,1,0-1.11c6.35-1.32,11.67.5,11.67-5.19s-12.12-2.93-12.12-5,12.12,1,12.12-5.46c0-6.25-12.12-3.12-12.12-5.32s12.12,1,12.12-5.4-12.12-3.17-12.12-5.37c0-1.53,14.26-.34,11.37-4-1.42-1.8-2-1.35-15.13-1.35-4.69,0-3.52,3.75-3.52,25.34,0,6.12.2,4.89-27.47,4.89V90.06C178.59,90.06,178.31,88.9,178.31,95Zm45.86,4.24c0,3.91,3.81,2.94,16.47,2.94a3,3,0,0,0,2.94-2.94c0-6.19-12.13-3.14-12.13-5.39s12.13,1,12.13-5.58c0-5.34-5.7-3.75-11.67-5a.59.59,0,0,1,0-1.15c6.7-1.45,11.67.54,11.67-5.48,0-6.94-12.13-2.73-12.13-5.15,0-2.22,12.13.79,12.13-5.39a3,3,0,0,0-2.94-2.94c-12.74,0-16.47-.94-16.47,2.94Z"/><path class="cls-1" d="M50.39,107.43c0,4.59-5,3.44-16,3.44A3.44,3.44,0,0,1,31,107.43c0-2.79,9.57-2.29,11.66-2.73a.57.57,0,0,0,0-1.11c-5.82-1.2-11.66.32-11.66-4.88,0-6.29,12.12-3.11,12.12-5.33S31,94.61,31,87.75c0-5.88,12.12-3,12.12-5.15S31,83,31,77.8c0-6,4.94-4,11.66-5.42a.57.57,0,0,0,0-1.11C36.74,70.05,31,71.55,31,66.49s5.85-3.68,11.66-4.88a.57.57,0,0,0,0-1.11C40.46,60,31,60.23,31,57.77a3.44,3.44,0,0,1,3.43-3.44c11.07,0,16-1.13,16,3.44ZM73.32,95c0,21.75,1.13,25.35-3.53,25.35-13.05,0-14.13.51-15.43-1.83-1.52-2.73,11.68-2.2,11.68-3.55,0-2.09-12.13.61-12.13-5,0-5.8,5.23-3.92,11.68-5.26a.57.57,0,0,0,0-1.11c-5.93-1.22-11.68.36-11.68-4.94,0-6.14,12.13-3.09,12.13-5.27s-12.13.7-12.13-5.09c0-5.6,5.44-3.84,11.68-5.13a.57.57,0,0,0,0-1.11c-6.34-1.32-11.68.5-11.68-5.19S66,73.93,66,71.83s-12.13,1-12.13-5.46c0-6.25,12.13-3.12,12.13-5.32s-12.13,1-12.13-5.4S66,52.48,66,50.28c0-1.53-14.25-.34-11.37-4,1.42-1.8,2-1.35,15.12-1.35,4.71,0,3.53,3.74,3.53,25.34,0,6.13-.61,4.89,30.15,4.89l-2.68,14.92C73,90.06,73.32,88.9,73.32,95ZM27.46,99.19c0,3.9-3.8,2.94-16.46,2.94a3,3,0,0,1-2.95-2.94C8.05,93,20.17,96,20.17,93.8s-12.12,1-12.12-5.58c0-5.34,5.69-3.75,11.68-5a.6.6,0,0,0,0-1.15C13,80.58,8.05,82.57,8.05,76.55c0-7,12.12-2.72,12.12-5.15,0-2.21-12.12.8-12.12-5.39A3,3,0,0,1,11,63.07c13.15,0,16.46-.8,16.46,2.94Z"/></g></svg>