<?xml version="1.0" encoding="utf-8"?>
<!-- Generator: Adobe Illustrator 25.2.0, SVG Export Plug-In . SVG Version: 6.00 Build 0)  -->
<svg version="1.1" id="Layer_1" xmlns="http://www.w3.org/2000/svg" xmlns:xlink="http://www.w3.org/1999/xlink" x="0px" y="0px"
	 viewBox="0 0 24 24" style="enable-background:new 0 0 24 24;" xml:space="preserve">
<g>
	<path class="st0" d="M17,21.3H7c-3.7,0-5.8-2.1-5.8-5.8v-7c0-3.7,2.1-5.8,5.8-5.8h10c3.7,0,5.8,2.1,5.8,5.8v7
		C22.8,19.2,20.7,21.3,17,21.3z M7,4.3c-2.9,0-4.2,1.4-4.2,4.3v7c0,2.9,1.4,4.2,4.2,4.2h10c2.9,0,4.2-1.4,4.2-4.2v-7
		c0-2.9-1.4-4.3-4.2-4.3H7z"/>
</g>
<g>
	<path class="st0" d="M12,12.9c-0.8,0-1.7-0.3-2.3-0.8L6.5,9.6C6.2,9.3,6.2,8.9,6.4,8.5c0.3-0.3,0.7-0.4,1.1-0.1l3.1,2.5
		c0.8,0.6,2.1,0.6,2.8,0l3.1-2.5c0.3-0.3,0.8-0.2,1.1,0.1c0.3,0.3,0.2,0.8-0.1,1.1l-3.1,2.5C13.7,12.6,12.8,12.9,12,12.9z"/>
</g>
</svg>
