<?xml version="1.0" encoding="utf-8"?>
<!-- Generator: Adobe Illustrator 25.2.0, SVG Export Plug-In . SVG Version: 6.00 Build 0)  -->
<svg version="1.1" id="Layer_1" xmlns="http://www.w3.org/2000/svg" xmlns:xlink="http://www.w3.org/1999/xlink" x="0px" y="0px"
	 viewBox="0 0 24 24" style="enable-background:new 0 0 24 24;" xml:space="preserve">
<path class="st0" d="M11.1,15l-1.9,1.8c-0.4,0.4-1,0.4-1.4,0c-0.1-0.1-0.2-0.2-0.3-0.3c-1-1-2-2.1-2.8-3.3c-0.8-1.1-1.5-2.3-2-3.4
	C2.2,8.7,2,7.6,2,6.5c0-0.7,0.1-1.3,0.4-1.9C2.6,4,3,3.4,3.5,2.9C4.2,2.3,4.8,2,5.6,2c0.3,0,0.6,0.1,0.8,0.2
	c0.3,0.1,0.5,0.3,0.7,0.6L9.4,6c0.2,0.2,0.3,0.5,0.4,0.7c0.1,0.2,0.1,0.4,0.1,0.6c0,0.2-0.1,0.5-0.2,0.7C9.6,8.3,9.4,8.5,9.2,8.7
	L8.4,9.5C8.3,9.6,8.2,9.8,8.2,9.9c0,0.1,0,0.1,0,0.2c0,0.1,0.1,0.1,0.1,0.2c0.2,0.3,0.5,0.8,0.9,1.3c0.4,0.5,0.9,1,1.4,1.6
	c0.1,0.1,0.2,0.2,0.3,0.3C11.4,13.9,11.4,14.6,11.1,15z"/>
<path class="st0" d="M22,18.3c0,0.3-0.1,0.6-0.2,0.9c0,0.1-0.1,0.2-0.1,0.2c-0.2,0.4-0.4,0.7-0.7,1c-0.5,0.5-1,0.9-1.6,1.2
	c0,0,0,0,0,0c-0.6,0.2-1.2,0.4-1.9,0.4c-1,0-2.1-0.2-3.3-0.7s-2.3-1.1-3.4-2c-0.4-0.3-0.8-0.6-1.1-0.9l3.3-3.3
	c0.3,0.2,0.5,0.4,0.7,0.5c0.1,0,0.1,0,0.2,0.1c0.1,0,0.2,0,0.2,0c0.2,0,0.3-0.1,0.4-0.2l0.8-0.8c0.2-0.2,0.5-0.4,0.7-0.6
	c0.2-0.1,0.5-0.2,0.7-0.2c0.2,0,0.4,0,0.6,0.1c0.2,0.1,0.5,0.2,0.7,0.4l3.3,2.3c0.3,0.2,0.4,0.4,0.6,0.6C21.9,17.8,22,18,22,18.3z"
	/>
</svg>
