<?xml version="1.0" encoding="utf-8"?>
<!-- Generator: Adobe Illustrator 25.2.0, SVG Export Plug-In . SVG Version: 6.00 Build 0)  -->
<svg version="1.1" id="Layer_1" xmlns="http://www.w3.org/2000/svg" xmlns:xlink="http://www.w3.org/1999/xlink" x="0px" y="0px"
	 viewBox="0 0 24 24" style="enable-background:new 0 0 24 24;" xml:space="preserve">
<g>
	<path class="st0" d="M17.5,22.8c-1.1,0-2.3-0.3-3.6-0.8c-1.2-0.5-2.4-1.2-3.6-2.1C9.1,19,8,18.1,6.9,17c-1.1-1.1-2-2.2-2.9-3.4
		c-0.9-1.2-1.6-2.4-2-3.6C1.5,8.9,1.2,7.7,1.2,6.5c0-0.8,0.1-1.5,0.4-2.2C1.9,3.6,2.4,3,3,2.4c0.8-0.8,1.6-1.1,2.6-1.1
		c0.4,0,0.8,0.1,1.1,0.3c0.4,0.2,0.7,0.5,1,0.8c0.2,0.3,0.2,0.8-0.2,1c-0.3,0.2-0.8,0.2-1-0.2C6.4,3,6.2,2.9,6.1,2.9
		C5.9,2.8,5.8,2.8,5.6,2.8C5,2.8,4.5,3,4,3.5c-0.5,0.4-0.8,0.9-1,1.4C2.9,5.4,2.8,6,2.8,6.5c0,0.9,0.2,1.9,0.7,3
		c0.4,1.1,1.1,2.2,1.9,3.3C6.1,13.9,7,15,8,16c1,1,2.1,1.9,3.2,2.7c1.1,0.8,2.2,1.4,3.3,1.9c1.7,0.7,3.3,0.9,4.6,0.3
		c0.5-0.2,1-0.5,1.4-1c0.2-0.3,0.4-0.5,0.6-0.8c0.1-0.3,0.2-0.5,0.2-0.8c0-0.2,0-0.3-0.1-0.5c0-0.1-0.1-0.2-0.3-0.3l-3.3-2.4
		c-0.2-0.1-0.4-0.2-0.5-0.3c-0.3-0.1-0.4-0.1-0.6,0c-0.2,0.1-0.4,0.2-0.6,0.4L15,16.1c-0.4,0.4-1,0.5-1.5,0.3l-0.2-0.1
		c0,0-0.1,0-0.1-0.1c-0.4-0.2-0.9-0.6-1.4-1c-0.5-0.4-1-0.9-1.6-1.5c-0.5-0.5-1-1-1.5-1.6c-0.5-0.6-0.8-1-1-1.4c0,0,0-0.1-0.1-0.1
		l-0.1-0.2c-0.1-0.2-0.1-0.4-0.1-0.5c0-0.4,0.1-0.7,0.4-0.9l0.8-0.8C8.8,8,9,7.8,9.1,7.7c0.1-0.1,0.1-0.2,0.1-0.3c0,0,0-0.1-0.1-0.3
		C9,6.8,8.9,6.6,8.8,6.4C8.5,6.1,8.6,5.6,9,5.4c0.3-0.2,0.8-0.2,1,0.2c0.2,0.3,0.4,0.6,0.5,0.9c0.1,0.3,0.2,0.6,0.2,0.9
		c0,0.4-0.1,0.8-0.3,1.1C10.2,8.7,10,9,9.7,9.3L9,10c0,0,0,0,0,0.1c0.1,0.2,0.4,0.6,0.8,1.1c0.5,0.6,1,1.1,1.4,1.5
		c0.6,0.6,1.1,1,1.5,1.4c0.6,0.5,0.9,0.7,1.2,0.8l0,0.1l0.7-0.7c0.3-0.3,0.6-0.5,0.9-0.7c0.5-0.3,1.2-0.4,2-0.1
		c0.3,0.1,0.5,0.3,0.8,0.5l3.3,2.4c0.4,0.3,0.6,0.6,0.8,1c0.2,0.4,0.2,0.7,0.2,1.1c0,0.5-0.1,1-0.3,1.4c-0.2,0.4-0.5,0.8-0.8,1.2
		c-0.6,0.6-1.2,1.1-1.9,1.4C19,22.6,18.2,22.8,17.5,22.8z M13.9,15l-0.2,0.7l0.3-0.7C14,15,14,15,13.9,15z M13.9,15
		C13.9,15,13.9,15,13.9,15L13.9,15z"/>
</g>
</svg>
