<?xml version="1.0" encoding="utf-8"?>
<!-- Generator: Adobe Illustrator 25.2.0, SVG Export Plug-In . SVG Version: 6.00 Build 0)  -->
<svg version="1.1" id="Layer_1" xmlns="http://www.w3.org/2000/svg" xmlns:xlink="http://www.w3.org/1999/xlink" x="0px" y="0px"
	 viewBox="0 0 24 24" style="enable-background:new 0 0 24 24;" xml:space="preserve">

<g>
	<path class="st0" d="M16.4,22.8H3.2c-1,0-1.8-0.4-2.4-1.2c-0.6-0.8-0.7-1.8-0.5-2.7c0.1-0.4,0.5-0.6,0.9-0.5
		c0.4,0.1,0.6,0.5,0.5,0.9c-0.1,0.5-0.1,1,0.2,1.4c0.3,0.4,0.7,0.6,1.2,0.6h13.1c0.7,0,1.3-0.5,1.5-1.1l3.4-13.5
		c0.1-0.3,0.1-0.7-0.1-0.9c-0.2-0.6-0.8-0.9-1.4-0.9H7.4C6.8,4.7,6.2,5.1,6,5.8l-2.6,8.5c-0.1,0.4-0.5,0.6-0.9,0.5
		c-0.4-0.1-0.6-0.5-0.5-0.9l2.6-8.5C5,4.1,6.1,3.2,7.4,3.2h12.3c1.2,0,2.3,0.7,2.8,1.8c0.3,0.6,0.3,1.2,0.1,1.9l-3.4,13.5
		C19,21.8,17.8,22.8,16.4,22.8z"/>
</g>
<g>
	<path class="st0" d="M20.8,22.8H16c-0.4,0-0.8-0.3-0.8-0.8s0.3-0.8,0.8-0.8h4.8c0.4,0,0.8-0.2,1.1-0.5c0.3-0.3,0.4-0.7,0.4-1.1
		l-1-13.6c0-0.4,0.3-0.8,0.7-0.8c0.4,0,0.8,0.3,0.8,0.7l1,13.6c0.1,0.8-0.2,1.6-0.8,2.2C22.4,22.4,21.6,22.8,20.8,22.8z"/>
</g>
<g>
	<path class="st0" d="M9.7,7.1c-0.1,0-0.1,0-0.2,0C9.1,7,8.9,6.6,9,6.2l1-4.3c0.1-0.4,0.5-0.6,0.9-0.6c0.4,0.1,0.7,0.5,0.6,0.9
		l-1,4.3C10.3,6.9,10,7.1,9.7,7.1z"/>
</g>
<g>
	<path class="st0" d="M16.4,7.1c-0.1,0-0.1,0-0.2,0c-0.4-0.1-0.7-0.5-0.6-0.9l0.9-4.3c0.1-0.4,0.5-0.7,0.9-0.6
		c0.4,0.1,0.7,0.5,0.6,0.9l-0.9,4.3C17,6.9,16.7,7.1,16.4,7.1z"/>
</g>
<g>
	<path class="st0" d="M15.7,12.8h-8c-0.4,0-0.8-0.3-0.8-0.8s0.3-0.8,0.8-0.8h8c0.4,0,0.8,0.3,0.8,0.8S16.1,12.8,15.7,12.8z"/>
</g>
<g>
	<path class="st0" d="M14.7,16.8H14c-0.4,0-0.8-0.3-0.8-0.8s0.3-0.8,0.8-0.8h0.7c0.4,0,0.8,0.3,0.8,0.8S15.1,16.8,14.7,16.8z"/>
</g>
<g>
	<path class="st0" d="M11,16.8H6.7c-0.4,0-0.8-0.3-0.8-0.8s0.3-0.8,0.8-0.8H11c0.4,0,0.8,0.3,0.8,0.8S11.4,16.8,11,16.8z"/>
</g>
</svg>
