<?xml version="1.0" encoding="utf-8"?>
<!-- Generator: Adobe Illustrator 25.2.0, SVG Export Plug-In . SVG Version: 6.00 Build 0)  -->
<svg version="1.1" id="Layer_1" xmlns="http://www.w3.org/2000/svg" xmlns:xlink="http://www.w3.org/1999/xlink" x="0px" y="0px"
	 viewBox="0 0 24 24" style="enable-background:new 0 0 24 24;" xml:space="preserve">
<path class="st0" d="M20.9,9.9l0.6,9.9c0,0.3-0.1,0.5-0.2,0.5c-0.1,0.1-0.2,0.2-0.5,0.2h-2.7l2.2-10.6H20.9z M22,6L22,6
	c0,0.3,0,0.5-0.1,0.8l-7.4,13.5c-0.2,1-1.1,1.7-2.2,1.7h8.4c1.3,0,2.3-1.1,2.2-2.4L22,6z"/>
<path class="st0" d="M11.5,2.2c0.1-0.4-0.1-0.8-0.6-0.9c-0.4-0.1-0.8,0.1-0.9,0.6L9.5,4H11L11.5,2.2z"/>
<path class="st0" d="M18.1,2.2c0.1-0.4-0.2-0.8-0.6-0.9c-0.4-0.1-0.8,0.2-0.9,0.6L16.1,4h1.5L18.1,2.2z"/>
<path class="st0" d="M21.8,5.3C21.5,4.5,20.7,4,19.7,4h-2.1l-0.6,2.6c-0.1,0.3-0.4,0.6-0.7,0.6c-0.1,0-0.1,0-0.2,0
	c-0.4-0.1-0.7-0.5-0.6-0.9L16.1,4H11l-0.6,2.6C10.3,6.9,10,7.1,9.7,7.1c-0.1,0-0.1,0-0.2,0C9.1,7,8.8,6.6,8.9,6.2l0.5-2.2h-2
	c-1,0-1.8,0.6-2.1,1.6L1.1,19.1C0.7,20.5,1.7,22,3.2,22h13.1c1,0,1.9-0.7,2.2-1.7l3.4-13.5C22,6.5,22,6.3,22,6
	C22,5.8,21.9,5.5,21.8,5.3z M14.7,16.8h-8c-0.4,0-0.8-0.3-0.8-0.8s0.3-0.8,0.8-0.8h8c0.4,0,0.8,0.3,0.8,0.8S15.1,16.8,14.7,16.8z
	 M15.7,12.8h-8c-0.4,0-0.8-0.3-0.8-0.8s0.3-0.8,0.8-0.8h8c0.4,0,0.8,0.3,0.8,0.8S16.1,12.8,15.7,12.8z"/>
</svg>
