<?xml version="1.0" encoding="utf-8"?>
<!-- Generator: Adobe Illustrator 26.0.1, SVG Export Plug-In . SVG Version: 6.00 Build 0)  -->
<svg version="1.1" id="Layer_1" xmlns="http://www.w3.org/2000/svg" xmlns:xlink="http://www.w3.org/1999/xlink" x="0px" y="0px"
	 viewBox="0 0 24 24" style="enable-background:new 0 0 24 24;" xml:space="preserve">
<path class="st0" d="M20.9,8.4l-6.9-5.5c-1.1-0.9-2.8-0.9-3.9,0L3.1,8.4C2.4,9,1.9,10.3,2,11.3l1.3,8c0.2,1.4,1.6,2.6,3,2.6h11.2
	c1.4,0,2.8-1.2,3-2.6l1.3-8C22.1,10.3,21.6,9,20.9,8.4z M12,15.5c-1.4,0-2.5-1.1-2.5-2.5s1.1-2.5,2.5-2.5s2.5,1.1,2.5,2.5
	S13.4,15.5,12,15.5z"/>
</svg>
