<?xml version="1.0" encoding="utf-8"?>
<!-- Generator: Adobe Illustrator 26.0.1, SVG Export Plug-In . SVG Version: 6.00 Build 0)  -->
<svg version="1.1" id="Layer_1" xmlns="http://www.w3.org/2000/svg" xmlns:xlink="http://www.w3.org/1999/xlink" x="0px" y="0px"
	 viewBox="0 0 24 24" style="enable-background:new 0 0 24 24;" xml:space="preserve">
<g>
	<path class="st0" d="M17.6,22.6H6.4c-1.8,0-3.5-1.4-3.8-3.2c-0.1-0.4,0.2-0.8,0.6-0.9c0.4-0.1,0.8,0.2,0.9,0.6
		c0.2,1.1,1.2,1.9,2.3,1.9h11.2c1.1,0,2.1-0.9,2.3-1.9l1.3-8c0.1-0.7-0.3-1.8-0.8-2.2l-6.9-5.5c-0.8-0.6-2.1-0.6-2.9,0L3.6,9
		c-0.6,0.5-1,1.5-0.8,2.2l0.7,4.1c0.1,0.4-0.2,0.8-0.6,0.9C2.4,16.2,2,15.9,2,15.5l-0.7-4.1c-0.2-1.2,0.4-2.8,1.4-3.6l6.9-5.5
		c1.3-1.1,3.5-1.1,4.8,0l6.9,5.5c1,0.8,1.6,2.4,1.4,3.6l-1.3,8C21.1,21.1,19.4,22.6,17.6,22.6z"/>
</g>
<g>
	<path class="st0" d="M12,16.2c-1.8,0-3.2-1.5-3.2-3.2s1.5-3.2,3.2-3.2c0.4,0,0.8,0.3,0.8,0.8s-0.3,0.8-0.8,0.8
		c-1,0-1.8,0.8-1.8,1.8s0.8,1.8,1.8,1.8s1.8-0.8,1.8-1.8c0-0.4,0.3-0.8,0.8-0.8s0.8,0.3,0.8,0.8C15.2,14.8,13.8,16.2,12,16.2z"/>
</g>
</svg>
