<?xml version="1.0" encoding="utf-8"?>
<!-- Generator: Adobe Illustrator 26.0.1, SVG Export Plug-In . SVG Version: 6.00 Build 0)  -->
<svg version="1.1" id="Layer_1" xmlns="http://www.w3.org/2000/svg" xmlns:xlink="http://www.w3.org/1999/xlink" x="0px" y="0px"
	 viewBox="0 0 24 24" style="enable-background:new 0 0 24 24;" xml:space="preserve">
<g>
	<path class="st0" d="M12,18.8c-0.4,0-0.8-0.3-0.8-0.8v-3c0-0.4,0.3-0.8,0.8-0.8s0.8,0.3,0.8,0.8v3C12.8,18.4,12.4,18.8,12,18.8z"/>
</g>
<g>
	<path class="st0" d="M17.6,22.6H6.4c-1.8,0-3.5-1.4-3.8-3.2l-1.3-8c-0.2-1.2,0.4-2.8,1.4-3.6l6.9-5.5c1.3-1.1,3.5-1.1,4.8,0
		l6.9,5.5c1,0.8,1.6,2.4,1.4,3.6l-1.3,8C21.1,21.1,19.4,22.6,17.6,22.6z M12,2.9c-0.5,0-1.1,0.2-1.4,0.5l0,0L3.6,9
		c-0.6,0.4-1,1.5-0.8,2.2l1.3,8c0.2,1.1,1.2,1.9,2.3,1.9h11.2c1.1,0,2.1-0.9,2.3-1.9l1.3-8c0.1-0.7-0.3-1.8-0.8-2.2l-6.9-5.5
		C13.1,3.1,12.5,2.9,12,2.9z M10.1,2.8L10.1,2.8L10.1,2.8z"/>
</g>
</svg>
