<?xml version="1.0" encoding="utf-8"?>
<!-- Generator: Adobe Illustrator 25.2.0, SVG Export Plug-In . SVG Version: 6.00 Build 0)  -->
<svg version="1.1" id="Layer_1" xmlns="http://www.w3.org/2000/svg" xmlns:xlink="http://www.w3.org/1999/xlink" x="0px" y="0px"
	 viewBox="0 0 24 24" style="enable-background:new 0 0 24 24;" xml:space="preserve">
<g>
	<path class="st0" d="M12,22.8C6.1,22.8,1.2,17.9,1.2,12S6.1,1.3,12,1.3S22.8,6.1,22.8,12S17.9,22.8,12,22.8z M12,2.8
		c-5.1,0-9.2,4.1-9.2,9.2s4.1,9.2,9.2,9.2s9.2-4.1,9.2-9.2S17.1,2.8,12,2.8z"/>
</g>
<g>
	<path class="st0" d="M17.5,11.4c-0.1,0-0.3,0-0.4-0.1c-3-2.1-6.8-2.5-10.2-1.2c-0.4,0.1-0.8,0-1-0.4c-0.1-0.4,0-0.8,0.4-1
		c3.8-1.5,8.2-1,11.6,1.4c0.3,0.2,0.4,0.7,0.2,1C18,11.2,17.7,11.4,17.5,11.4z"/>
</g>
<g>
	<path class="st0" d="M15.9,14.1c-0.2,0-0.3,0-0.4-0.1c-2-1.5-4.8-1.8-7.3-0.9c-0.4,0.1-0.8-0.1-1-0.4c-0.1-0.4,0.1-0.8,0.4-1
		c3-1.1,6.3-0.7,8.7,1.1c0.3,0.2,0.4,0.7,0.2,1C16.4,14,16.1,14.1,15.9,14.1z"/>
</g>
<g>
	<path class="st0" d="M14.8,16.8c-0.1,0-0.3,0-0.4-0.1c-1.6-1.1-3.6-1.3-5.3-0.6c-0.4,0.1-0.8,0-1-0.4c-0.2-0.4,0-0.8,0.4-1
		c2.2-0.9,4.6-0.6,6.7,0.8c0.3,0.2,0.4,0.7,0.2,1C15.3,16.7,15,16.8,14.8,16.8z"/>
</g>
</svg>
