<?xml version="1.0" encoding="utf-8"?>
<!-- Generator: Adobe Illustrator 25.2.0, SVG Export Plug-In . SVG Version: 6.00 Build 0)  -->
<svg version="1.1" id="Layer_1" xmlns="http://www.w3.org/2000/svg" xmlns:xlink="http://www.w3.org/1999/xlink" x="0px" y="0px"
	 viewBox="0 0 24 24" style="enable-background:new 0 0 24 24;" xml:space="preserve">
<path class="st0" d="M12,2C6.5,2,2,6.5,2,12s4.5,10,10,10s10-4.5,10-10S17.5,2,12,2z M15.4,16.6c-0.1,0.2-0.4,0.3-0.6,0.3
	c-0.2,0-0.3,0-0.4-0.1c-1.5-1.1-3.5-1.3-5.3-0.6c-0.4,0.1-0.8,0-1-0.4c-0.2-0.4,0-0.8,0.4-1c2.2-0.9,4.7-0.6,6.7,0.8
	C15.6,15.8,15.7,16.3,15.4,16.6z M16.5,13.8c-0.1,0.2-0.4,0.3-0.6,0.3c-0.1,0-0.3-0.1-0.4-0.1c-2.1-1.5-4.8-1.9-7.3-0.9
	c-0.4,0.2-0.8,0-1-0.4c-0.1-0.4,0-0.8,0.4-1c2.9-1.2,6.2-0.8,8.7,1.1C16.7,13,16.8,13.5,16.5,13.8z M18.1,11.1
	c-0.1,0.2-0.4,0.3-0.6,0.3c-0.1,0-0.3-0.1-0.4-0.1c-3-2.1-6.8-2.6-10.2-1.2c-0.4,0.2-0.8,0-1-0.4s0-0.8,0.4-1
	c3.9-1.5,8.2-1,11.6,1.4C18.3,10.3,18.3,10.8,18.1,11.1z"/>
</svg>
