<?xml version="1.0" encoding="utf-8"?>
<!-- Generator: Adobe Illustrator 25.2.0, SVG Export Plug-In . SVG Version: 6.00 Build 0)  -->
<svg version="1.1" id="Layer_1" xmlns="http://www.w3.org/2000/svg" xmlns:xlink="http://www.w3.org/1999/xlink" x="0px" y="0px"
	 viewBox="0 0 24 24" style="enable-background:new 0 0 24 24;" xml:space="preserve">
<path class="st0" d="M8.3,6.3c-0.4,0-0.7-0.3-0.7-0.8V2.8C7.5,2.3,7.9,2,8.3,2C8.7,2,9,2.3,9,2.8v2.8C9,5.9,8.7,6.3,8.3,6.3z"/>
<path class="st0" d="M15.7,6.3c-0.4,0-0.8-0.3-0.8-0.8V2.8C15,2.3,15.3,2,15.7,2c0.4,0,0.7,0.3,0.7,0.8v2.8
	C16.5,5.9,16.1,6.3,15.7,6.3z"/>
<path class="st0" d="M19.6,4.5C18.9,4,18,4.5,18,5.3v0.1c0,1.2-0.8,2.2-2,2.4c-1.3,0.1-2.5-0.9-2.5-2.2v-1c0-0.5-0.4-1-1-1h-0.9
	c-0.6,0-1,0.5-1,1v1c0,0.8-0.4,1.5-1,1.9C9.4,7.5,9.3,7.5,9.2,7.6C9.1,7.6,9,7.7,8.9,7.7c-0.1,0-0.2,0.1-0.4,0.1c-0.2,0-0.3,0-0.5,0
	c-0.1,0-0.3,0-0.4-0.1c-0.1,0-0.2-0.1-0.3-0.1c-0.1,0-0.2-0.1-0.3-0.2C6.4,7,6,6.2,6,5.4V5.3c0-0.8-0.8-1.2-1.5-0.9c0,0,0,0,0,0
	c0,0-0.1,0-0.1,0.1c0,0-0.1,0.1-0.1,0.1C4.1,4.8,3.8,5.1,3.6,5.3C3.5,5.4,3.4,5.6,3.3,5.7c0,0,0,0,0,0C3.2,5.9,3.1,6,3,6.2
	c0,0,0,0,0,0.1C3,6.3,2.9,6.4,2.8,6.6c0,0.1,0,0.1-0.1,0.1C2.7,6.9,2.7,7,2.7,7.2c0,0.1-0.1,0.3-0.1,0.4c0,0.1,0,0.2,0,0.3
	c0,0.1,0,0.3,0,0.4v8.8c0,2.7,2.2,4.9,4.9,4.9h9.3c2.7,0,4.9-2.2,4.9-4.9V8.4C21.5,6.8,20.7,5.4,19.6,4.5z M12,17.4H7.4
	c-0.4,0-0.8-0.3-0.8-0.8c0-0.4,0.3-0.8,0.8-0.8H12c0.4,0,0.8,0.3,0.8,0.8C12.8,17.1,12.4,17.4,12,17.4z M14.8,13.7H7.4
	c-0.4,0-0.8-0.3-0.8-0.8c0-0.4,0.3-0.8,0.8-0.8h7.4c0.4,0,0.8,0.3,0.8,0.8C15.5,13.4,15.2,13.7,14.8,13.7z"/>
</svg>
