<?xml version="1.0" encoding="utf-8"?>
<!-- Generator: Adobe Illustrator 25.2.0, SVG Export Plug-In . SVG Version: 6.00 Build 0)  -->
<svg version="1.1" id="Layer_1" xmlns="http://www.w3.org/2000/svg" xmlns:xlink="http://www.w3.org/1999/xlink" x="0px" y="0px"
	 viewBox="0 0 24 24" style="enable-background:new 0 0 24 24;" xml:space="preserve">
<g>
	<path class="st0" d="M16,22.8H8c-3,0-4.8-1.7-4.8-4.8V8.2c0-3.2,1.6-4.8,4.8-4.8c0.4,0,0.8,0.3,0.8,0.8c0,0.4,0.2,0.8,0.4,1.1
		c0.3,0.3,0.7,0.4,1.1,0.4h3.5c0.8,0,1.5-0.7,1.5-1.5c0-0.4,0.3-0.8,0.8-0.8c3.2,0,4.8,1.6,4.8,4.8V18C20.8,21,19,22.8,16,22.8z
		 M7.4,5C5.8,5.2,4.8,5.9,4.8,8.2V18c0,2.2,1,3.2,3.2,3.2h8c2.2,0,3.2-1,3.2-3.2V8.2c0-2.4-1-3.1-2.6-3.2c-0.3,1.3-1.5,2.2-2.9,2.2
		h-3.5c-0.8,0-1.6-0.3-2.1-0.9C7.8,6,7.5,5.5,7.4,5z"/>
</g>
<g>
	<path class="st0" d="M13.8,7.2h-3.5c-0.8,0-1.6-0.3-2.1-0.9C7.6,5.8,7.2,5.1,7.2,4.2c0-1.7,1.3-3,3-3h3.5c0.8,0,1.6,0.3,2.1,0.9
		c0.6,0.6,0.9,1.3,0.9,2.1C16.8,5.9,15.4,7.2,13.8,7.2z M10.2,2.8c-0.8,0-1.5,0.7-1.5,1.5c0,0.4,0.2,0.8,0.4,1.1
		c0.3,0.3,0.7,0.4,1.1,0.4h3.5c0.8,0,1.5-0.7,1.5-1.5c0-0.4-0.2-0.8-0.4-1.1c-0.3-0.3-0.7-0.4-1.1-0.4H10.2z"/>
</g>
<g>
	<path class="st0" d="M12,13.8H8c-0.4,0-0.8-0.3-0.8-0.8s0.3-0.8,0.8-0.8h4c0.4,0,0.8,0.3,0.8,0.8S12.4,13.8,12,13.8z"/>
</g>
<g>
	<path class="st0" d="M16,17.8H8c-0.4,0-0.8-0.3-0.8-0.8s0.3-0.8,0.8-0.8h8c0.4,0,0.8,0.3,0.8,0.8S16.4,17.8,16,17.8z"/>
</g>
</svg>
