<?xml version="1.0" encoding="utf-8"?>
<!-- Generator: Adobe Illustrator 25.2.0, SVG Export Plug-In . SVG Version: 6.00 Build 0)  -->
<svg version="1.1" id="Layer_1" xmlns="http://www.w3.org/2000/svg" xmlns:xlink="http://www.w3.org/1999/xlink" x="0px" y="0px"
	 viewBox="0 0 24 24" style="enable-background:new 0 0 24 24;" xml:space="preserve">
<g>
	<path class="st0" d="M15.8,20.2c-0.3,0-0.5,0-0.8,0c-0.5,0-1.1-0.1-1.7-0.3l-1.7-0.4c-4.6-1.1-6.1-3.5-5-8.1l1-4.2
		c0.2-1,0.5-1.7,0.8-2.4c1.7-3.6,5-3.2,7.3-2.7l1.7,0.4C17.7,2.6,18,3,17.9,3.4C17.8,3.8,17.4,4,17,3.9l-1.7-0.4
		c-3-0.7-4.7-0.2-5.7,1.9C9.4,6,9.2,6.6,9,7.5l-1,4.2c-0.9,3.8,0.1,5.4,3.9,6.3l1.7,0.4c0.5,0.1,1,0.2,1.5,0.3
		c2.7,0.3,4.1-0.9,4.8-4.2l1-4.2c0.5-2.2,0.4-3.7-0.5-4.7c-0.3-0.3-0.3-0.8,0.1-1.1c0.3-0.3,0.8-0.3,1.1,0.1c1.2,1.4,1.5,3.3,0.9,6
		l-1,4.2C20.6,18.4,18.8,20.2,15.8,20.2z"/>
</g>
<g>
	<path class="st0" d="M8.3,22.3c-2.6,0-4.2-1.5-5.3-4.8l-1.3-4c-0.7-2.2-0.7-3.9,0-5.3c0.7-1.4,2-2.3,4.3-3l1.6-0.5
		c0.5-0.2,0.9-0.3,1.3-0.3c0.3-0.1,0.6,0.1,0.7,0.3c0.2,0.2,0.2,0.5,0.1,0.8C9.4,6,9.2,6.6,9,7.5l-1,4.2c-0.9,3.8,0.1,5.4,3.9,6.3
		l1.7,0.4c0.5,0.1,1.1,0.2,1.5,0.3c0.3,0,0.6,0.2,0.7,0.6c0.1,0.3,0,0.6-0.3,0.8c-0.7,0.4-1.5,0.8-2.5,1.2l-1.6,0.5
		C10.2,22.1,9.2,22.3,8.3,22.3z M7.8,6.2L6.5,6.6C4.7,7.2,3.6,8,3.1,8.9c-0.5,1-0.5,2.3,0.1,4.1L4.5,17c1.2,3.6,2.8,4.4,6.4,3.3
		l1.6-0.5c0.1,0,0.1,0,0.2-0.1l-1.1-0.3c-4.6-1.1-6.1-3.5-5-8.1l1-4.2C7.6,6.8,7.7,6.5,7.8,6.2z"/>
</g>
</svg>
