<?xml version="1.0" encoding="utf-8"?>
<!-- Generator: Adobe Illustrator 25.2.0, SVG Export Plug-In . SVG Version: 6.00 Build 0)  -->
<svg version="1.1" id="Layer_1" xmlns="http://www.w3.org/2000/svg" xmlns:xlink="http://www.w3.org/1999/xlink" x="0px" y="0px"
	 viewBox="0 0 24 24" style="enable-background:new 0 0 24 24;" xml:space="preserve">
<g>
	<path class="st0" d="M15,22.8H9c-5.4,0-7.8-2.3-7.8-7.8v-2c0-0.4,0.3-0.8,0.8-0.8s0.8,0.3,0.8,0.8v2c0,4.6,1.6,6.2,6.2,6.2h6
		c4.6,0,6.2-1.6,6.2-6.2V9c0-4.6-1.6-6.2-6.2-6.2H9C4.4,2.8,2.8,4.4,2.8,9c0,0.4-0.3,0.8-0.8,0.8S1.2,9.4,1.2,9
		c0-5.4,2.3-7.8,7.8-7.8h6c5.4,0,7.8,2.3,7.8,7.8v6C22.8,20.4,20.4,22.8,15,22.8z"/>
</g>
<g>
	<path class="st0" d="M12,16.3c-2.3,0-4.2-1.9-4.2-4.2c0-2.3,1.9-4.3,4.2-4.3c2.3,0,4.2,1.9,4.2,4.3C16.2,14.3,14.3,16.3,12,16.3z
		 M12,9.3c-1.5,0-2.8,1.2-2.8,2.8s1.2,2.8,2.8,2.8s2.8-1.2,2.8-2.8S13.5,9.3,12,9.3z"/>
</g>
<g>
	<path class="st0" d="M17.6,8c-0.6,0-1-0.4-1-1s0.4-1,1-1h0c0.6,0,1,0.4,1,1S18.2,8,17.6,8z"/>
</g>
</svg>
