<?xml version="1.0" encoding="utf-8"?>
<!-- Generator: Adobe Illustrator 25.2.0, SVG Export Plug-In . SVG Version: 6.00 Build 0)  -->
<svg version="1.1" id="Layer_1" xmlns="http://www.w3.org/2000/svg" xmlns:xlink="http://www.w3.org/1999/xlink" x="0px" y="0px"
	 viewBox="0 0 24 24" style="enable-background:new 0 0 24 24;" xml:space="preserve">
<path class="st0" d="M16.2,2H7.8C4.2,2,2,4.2,2,7.8v8.4C2,19.8,4.2,22,7.8,22h8.4c3.6,0,5.8-2.2,5.8-5.8V7.8C22,4.2,19.8,2,16.2,2z
	 M12,15.9c-2.1,0-3.9-1.7-3.9-3.9S9.9,8.1,12,8.1s3.9,1.7,3.9,3.9S14.1,15.9,12,15.9z M17.9,6.9c0,0.1-0.1,0.2-0.2,0.3
	c-0.1,0.1-0.2,0.2-0.3,0.2c-0.1,0-0.2,0.1-0.4,0.1c-0.3,0-0.5-0.1-0.7-0.3c-0.1-0.1-0.2-0.2-0.2-0.3S16,6.6,16,6.5s0-0.3,0.1-0.4
	c0-0.1,0.1-0.2,0.2-0.3c0.2-0.2,0.6-0.3,0.9-0.3c0.1,0,0.1,0,0.2,0.1c0.1,0,0.1,0.1,0.2,0.1c0.1,0,0.1,0.1,0.1,0.1
	c0.1,0.1,0.2,0.2,0.2,0.3C18,6.2,18,6.4,18,6.5S18,6.8,17.9,6.9z"/>
</svg>
