<?xml version="1.0" encoding="utf-8"?>
<!-- Generator: Adobe Illustrator 26.0.1, SVG Export Plug-In . SVG Version: 6.00 Build 0)  -->
<svg version="1.1" id="Layer_1" xmlns="http://www.w3.org/2000/svg" xmlns:xlink="http://www.w3.org/1999/xlink" x="0px" y="0px"
	 viewBox="0 0 24 24" style="enable-background:new 0 0 24 24;" xml:space="preserve">
<g>
	<path class="st0" d="M15,22.8H9c-5.4,0-7.8-2.3-7.8-7.8v-2c0-0.4,0.3-0.8,0.8-0.8s0.8,0.3,0.8,0.8v2c0,4.6,1.6,6.2,6.2,6.2h6
		c4.6,0,6.2-1.6,6.2-6.2V9c0-4.6-1.6-6.2-6.2-6.2H9C4.4,2.8,2.8,4.4,2.8,9c0,0.4-0.3,0.8-0.8,0.8S1.2,9.4,1.2,9
		c0-5.4,2.3-7.8,7.8-7.8h6c5.4,0,7.8,2.3,7.8,7.8v6C22.8,20.4,20.4,22.8,15,22.8z"/>
</g>
<g>
	<path class="st0" d="M9,10.8c-1.5,0-2.8-1.2-2.8-2.8S7.5,5.2,9,5.2c0.4,0,0.8,0.3,0.8,0.8S9.4,6.8,9,6.8C8.3,6.8,7.8,7.3,7.8,8
		S8.3,9.2,9,9.2s1.2-0.6,1.2-1.2c0-0.4,0.3-0.8,0.8-0.8s0.8,0.3,0.8,0.8C11.8,9.5,10.5,10.8,9,10.8z"/>
</g>
<g>
	<path class="st0" d="M2.7,19.7c-0.2,0-0.5-0.1-0.6-0.3c-0.2-0.3-0.1-0.8,0.2-1L7.2,15c1.1-0.7,2.6-0.6,3.5,0.2l0.3,0.3
		c0.5,0.4,1.3,0.4,1.8,0l4.2-3.6c1.1-0.9,2.7-0.9,3.8,0l1.6,1.4c0.3,0.3,0.3,0.7,0.1,1.1c-0.3,0.3-0.7,0.3-1.1,0.1l-1.6-1.4
		c-0.5-0.4-1.3-0.4-1.8,0l-4.2,3.6c-1.1,0.9-2.7,0.9-3.8,0l-0.3-0.3C9.3,16,8.5,15.9,8,16.3l-4.9,3.3C3,19.7,2.8,19.7,2.7,19.7z"/>
</g>
</svg>
