<?xml version="1.0" encoding="utf-8"?>
<!-- Generator: Adobe Illustrator 26.0.1, SVG Export Plug-In . SVG Version: 6.00 Build 0)  -->
<svg version="1.1" id="Layer_1" xmlns="http://www.w3.org/2000/svg" xmlns:xlink="http://www.w3.org/1999/xlink" x="0px" y="0px"
	 viewBox="0 0 24 24" style="enable-background:new 0 0 24 24;" xml:space="preserve">
<path class="st0" d="M2.6,19L2.6,19c-0.3-0.6-0.5-1.2-0.5-2C2.1,17.8,2.3,18.4,2.6,19z"/>
<path class="st0" d="M9,10.4c1.3,0,2.4-1.1,2.4-2.4c0-1.3-1.1-2.4-2.4-2.4C7.7,5.6,6.6,6.7,6.6,8C6.6,9.3,7.7,10.4,9,10.4z"/>
<path class="st0" d="M16.2,2H7.8C4.2,2,2,4.2,2,7.8v8.4c0,1.1,0.2,2,0.6,2.8c0.9,1.9,2.7,3,5.2,3h8.4c3.6,0,5.8-2.2,5.8-5.8v-2.3
	V7.8C22,4.2,19.8,2,16.2,2z M20.4,12.5c-0.8-0.7-2-0.7-2.8,0l-4.2,3.6c-0.8,0.7-2,0.7-2.8,0l-0.3-0.3c-0.7-0.6-1.8-0.7-2.6-0.1
	l-3.7,2.5c-0.2-0.6-0.3-1.2-0.3-2V7.8C3.5,5,5,3.5,7.8,3.5h8.4c2.8,0,4.3,1.5,4.3,4.3v4.8L20.4,12.5z"/>
</svg>
