<?xml version="1.0" encoding="utf-8"?>
<!-- Generator: Adobe Illustrator 25.2.0, SVG Export Plug-In . SVG Version: 6.00 Build 0)  -->
<svg version="1.1" id="Layer_1" xmlns="http://www.w3.org/2000/svg" xmlns:xlink="http://www.w3.org/1999/xlink" x="0px" y="0px"
	 viewBox="0 0 24 24" style="enable-background:new 0 0 24 24;" xml:space="preserve">
<g>
	<path class="st0" d="M17,20.8H7c-3.4,0-5.8-2.3-5.8-5.8v-1.4c0-0.4,0.3-0.8,0.8-0.8s0.8,0.3,0.8,0.8V15c0,2.6,1.7,4.2,4.2,4.2h10
		c2.6,0,4.2-1.7,4.2-4.2V9c0-2.6-1.7-4.3-4.2-4.3H7C4.4,4.8,2.8,6.4,2.8,9c0,0.4-0.3,0.8-0.8,0.8S1.2,9.4,1.2,9
		c0-3.4,2.3-5.8,5.8-5.8h10c3.4,0,5.8,2.3,5.8,5.8v6C22.8,18.4,20.4,20.8,17,20.8z"/>
</g>
<g>
	<path class="st0" d="M10.6,15.5c-0.3,0-0.6-0.1-0.8-0.2c-0.6-0.3-0.9-1-0.9-1.8v-3c0-0.8,0.3-1.5,0.9-1.8c0.6-0.3,1.3-0.3,2,0.2
		l2.5,1.5c0.7,0.4,1.1,1,1.1,1.7c0,0.7-0.4,1.3-1.1,1.7l-2.5,1.5C11.4,15.4,11,15.5,10.6,15.5z M10.6,10C10.6,10,10.5,10,10.6,10
		c-0.2,0.1-0.2,0.2-0.2,0.5v3c0,0.3,0.1,0.5,0.2,0.5c0.1,0,0.3,0,0.5-0.1l2.5-1.5c0.3-0.2,0.3-0.3,0.3-0.4s-0.1-0.2-0.3-0.4L11,10.1
		c0,0,0,0,0,0C10.8,10,10.7,10,10.6,10z"/>
</g>
</svg>
